<svg xmlns="http://www.w3.org/2000/svg" xmlns:xlink="http://www.w3.org/1999/xlink" width="139.513" height="143.652" viewBox="0 0 139.513 143.652"><defs><linearGradient id="a" x1="-23.825" y1="-6.497" x2="-22.726" y2="-6.497" gradientUnits="objectBoundingBox"><stop offset="0" stop-color="#5fc2a4"/><stop offset="1" stop-color="#397462"/></linearGradient><linearGradient id="b" x1="-24.11" y1="-7.732" x2="-23.106" y2="-7.732" gradientUnits="objectBoundingBox"><stop offset="0" stop-color="#001409"/><stop offset="1" stop-color="#545456"/></linearGradient><linearGradient id="c" x1="-35.781" y1="-7.579" x2="-35.781" y2="-8.348" xlink:href="#b"/><linearGradient id="d" x1="-29.563" y1="-14.769" x2="-28.845" y2="-14.769" xlink:href="#a"/><linearGradient id="e" x1="-49.239" y1="-12.195" x2="-47.861" y2="-12.195" xlink:href="#a"/><linearGradient id="f" x1="-52.935" y1="-29.931" x2="-52.281" y2="-29.931" xlink:href="#b"/><linearGradient id="g" x1="-84.074" y1="-26.568" x2="-83.233" y2="-26.568" xlink:href="#b"/><linearGradient id="h" x1="-30.647" y1="-8.069" x2="-29.613" y2="-8.069" xlink:href="#a"/></defs><g transform="translate(0 0.001)"><path d="M23.39,122.25c-8.54-9.33-9.8-19.49-5.81-30.63,3.21-8.93,8.55-16.55,14.84-23.48,15.17-16.71,33.21-29.08,55-35.57a15,15,0,0,1,3.66-.88,6,6,0,0,1,6,3.42,6.59,6.59,0,0,1-1,7.35c-1.5,1.94-3.73,2.67-5.93,3.49C67.86,54.21,48.94,67.12,35,86.58,27.63,96.78,22.76,108,23.65,121A7.26,7.26,0,0,1,23.39,122.25Z" fill="url(#a)"/><path d="M45.23,136.65c-10.41-6.29-13.6-17.63-8.42-29.5C41.07,97.41,48.09,89.8,56,83c15.17-13.19,32.22-22.9,51.9-27.66,3.18-.77,6.25.56,7.3,3.15s-.08,5.63-3.4,7c-3.79,1.62-7.85,2.6-11.71,4.09C80.69,77.05,64,88.21,51.76,105.32c-4.95,6.94-8.48,14.51-8.32,23.36.05,2.73,1,5.23,1.79,7.97Z" fill="url(#b)"/><path d="M5.37,95.41c-3.87-10-3.21-19.34.86-28.49C11,56.09,19,47.78,27.79,40.16A160.719,160.719,0,0,1,44.38,27.85a11.54,11.54,0,0,1,7.38-2.19,4.79,4.79,0,0,1,4.11,7.13,11.5,11.5,0,0,1-4.5,4.44C37.87,46,26,56.42,16.81,69.74c-5,7.32-9.07,15.13-10.74,24a14.31,14.31,0,0,1-.7,1.67Z" fill="url(#c)"/><path d="M93.09,142c-4.58,1.29-9.15,1.7-13.69.12-4.86-1.69-6.9-5.25-5.75-10.2,1.65-7.07,6.35-12.19,11.49-16.79A78.48,78.48,0,0,1,119.71,96.7c4.74-1.12,9.55-1.62,14.38-.39A7.16,7.16,0,0,1,136,97c1.95,1.16,4.07,2.45,3.38,5.13s-2.89,3.47-5.28,3.08a36.36,36.36,0,0,0-18.86,1.63c-11.76,4.38-22.19,10.65-29.83,20.9A16.78,16.78,0,0,0,83.54,131c-2.69,6-.34,10.11,6.23,10.82,1.1.08,2.23.09,3.32.18Z" fill="url(#d)"/><path d="M71.45,143.62a31.78,31.78,0,0,1-10.36-1.26c-4.54-1.33-6.94-4.69-7.28-9.46-.41-5.63,1.23-10.74,3.92-15.56,6.37-11.41,15.84-19.76,26.64-26.76,3.22-2.09,6.35-1.58,8,.94s.86,5.92-2.27,8C82,104.9,74.64,111,69,118.94a32.69,32.69,0,0,0-4.15,7.64C61.93,134.41,63.69,139.28,71.45,143.62Z" fill="url(#e)"/><path d="M95,129.21c-.32,3.32,1.7,3.51,4,3.29a24.21,24.21,0,0,0,8-2.45c5.73-2.68,11.16-5.84,15.32-10.74,2.6-3.07,2.2-4.3-2-5.28,2.22-.14,4-.67,5.79-.35,3,.53,3.9,2.06,2.66,4.95A19.12,19.12,0,0,1,123,125.5c-7,5.83-14.71,10.25-23.77,12a12.66,12.66,0,0,1-1.71.27c-1.78.08-3.61,0-4.72-1.63s0-3.3.81-4.81c.39-.74.94-1.42,1.39-2.12Z" fill="url(#f)"/><path d="M15.72,21.11A63.13,63.13,0,0,1,35.67,2a6.59,6.59,0,0,1,1.89-.69c.56-.14,1.26-.24,1.64.26a1.34,1.34,0,0,1-.31,1.82,17.08,17.08,0,0,1-2.56,2.34,148.668,148.668,0,0,0-19.69,14.8,5.73,5.73,0,0,1-.92.58Z" fill="url(#g)"/><path d="M0,66c.46-2,2.69-8.3,13.5-20.74q3.29-3.91,6.86-7.49c11-11,24-19.53,38.24-26.45A13.29,13.29,0,0,0,62.53,8.9C64.4,7,65.25,4.83,63.91,2.33,62.69.06,60.24-.68,57.3.68,40.91,8.21,25.36,17.08,13.18,30.73a47.88,47.88,0,0,0-12,24.07C1,56,.41,60.59.13,64A19.55,19.55,0,0,1,0,66Z" fill="url(#h)"/><path d="M0,66Z" fill="#fff"/><path d="M20.36,37.77l.01-.01Z" fill="#fff"/></g></svg>